RBDS019runT35_grf
version=1
nRows=34
nColumns=19
inDegrees=no
endheader
time	ground_force_r_vx	ground_force_r_vy	ground_force_r_vz	ground_force_r_px	ground_force_r_py	ground_force_r_pz	ground_force_r_mx	ground_force_r_my	ground_force_r_mz	ground_force_l_vx	ground_force_l_vy	ground_force_l_vz	ground_force_l_px	ground_force_l_py	ground_force_l_pz	ground_force_l_mx	ground_force_l_my	ground_force_l_mz
     14.99900000	   -112.21602074	    934.09385836	     -3.50037018	      2.40140973	      0.00000000	      1.07312533	      0.00000000	      4.88444100	     -0.00000000	      0.00000000	      0.00000000	      0.00000000	      0.00000000	      0.00000000	      0.00000000	      0.00000000	      0.00000000	      0.00000000
     15.00000000	   -115.70412806	    958.64767552	     -4.58545485	      2.40061773	      0.00000000	      1.07309345	      0.00000000	      4.87860460	     -0.00000000	      0.00000000	      0.00000000	      0.00000000	      0.00000000	      0.00000000	      0.00000000	      0.00000000	      0.00000000	      0.00000000
     15.00100000	   -119.02801583	    981.22658052	     -5.81243469	      2.39974824	      0.00000000	      1.07308630	      0.00000000	      4.87962579	     -0.00000000	      0.00000000	      0.00000000	      0.00000000	      0.00000000	      0.00000000	      0.00000000	      0.00000000	      0.00000000	      0.00000000
     15.00200000	   -122.35190361	   1003.80548552	     -7.03941453	      2.39887874	      0.00000000	      1.07307915	      0.00000000	      4.88064698	     -0.00000000	      0.00000000	      0.00000000	      0.00000000	      0.00000000	      0.00000000	      0.00000000	      0.00000000	      0.00000000	      0.00000000
     15.00300000	   -125.67579138	   1026.38439053	     -8.26639436	      2.39800924	      0.00000000	      1.07307200	      0.00000000	      4.88166817	     -0.00000000	      0.00000000	      0.00000000	      0.00000000	      0.00000000	      0.00000000	      0.00000000	      0.00000000	      0.00000000	      0.00000000
     15.00400000	   -128.84572265	   1047.61853176	     -9.58688959	      2.39707957	      0.00000000	      1.07308133	      0.00000000	      4.88652755	     -0.00000000	      0.00000000	      0.00000000	      0.00000000	      0.00000000	      0.00000000	      0.00000000	      0.00000000	      0.00000000	      0.00000000
     15.00500000	   -131.93867565	   1068.18029110	    -10.95414251	      2.39611982	      0.00000000	      1.07309889	      0.00000000	      4.89330603	     -0.00000000	      0.00000000	      0.00000000	      0.00000000	      0.00000000	      0.00000000	      0.00000000	      0.00000000	      0.00000000	      0.00000000
     15.00600000	   -135.03162866	   1088.74205045	    -12.32139543	      2.39516006	      0.00000000	      1.07311646	      0.00000000	      4.90008451	     -0.00000000	      0.00000000	      0.00000000	      0.00000000	      0.00000000	      0.00000000	      0.00000000	      0.00000000	      0.00000000	      0.00000000
     15.00700000	   -138.02367202	   1108.63263871	    -13.73274533	      2.39416619	      0.00000000	      1.07314198	      0.00000000	      4.90833604	     -0.00000000	      0.00000000	      0.00000000	      0.00000000	      0.00000000	      0.00000000	      0.00000000	      0.00000000	      0.00000000	      0.00000000
     15.00800000	   -140.81389611	   1127.18088480	    -15.23228920	      2.39310412	      0.00000000	      1.07318341	      0.00000000	      4.91953367	     -0.00000000	      0.00000000	      0.00000000	      0.00000000	      0.00000000	      0.00000000	      0.00000000	      0.00000000	      0.00000000	      0.00000000
     15.00900000	   -143.60412019	   1145.72913089	    -16.73183307	      2.39204205	      0.00000000	      1.07322484	      0.00000000	      4.93073130	     -0.00000000	      0.00000000	      0.00000000	      0.00000000	      0.00000000	      0.00000000	      0.00000000	      0.00000000	      0.00000000	      0.00000000
     15.01000000	   -146.39434428	   1164.27737698	    -18.23137694	      2.39097998	      0.00000000	      1.07326627	      0.00000000	      4.94192893	     -0.00000000	      0.00000000	      0.00000000	      0.00000000	      0.00000000	      0.00000000	      0.00000000	      0.00000000	      0.00000000	      0.00000000
     15.01100000	   -148.80818649	   1180.85489405	    -19.84861212	      2.38980463	      0.00000000	      1.07332988	      0.00000000	      4.95607927	     -0.00000000	      0.00000000	      0.00000000	      0.00000000	      0.00000000	      0.00000000	      0.00000000	      0.00000000	      0.00000000	      0.00000000
     15.01200000	   -151.22202870	   1197.43241111	    -21.46584729	      2.38862928	      0.00000000	      1.07339348	      0.00000000	      4.97022961	     -0.00000000	      0.00000000	      0.00000000	      0.00000000	      0.00000000	      0.00000000	      0.00000000	      0.00000000	      0.00000000	      0.00000000
     15.01300000	   -153.63587090	   1214.00992818	    -23.08308247	      2.38745393	      0.00000000	      1.07345709	      0.00000000	      4.98437994	     -0.00000000	      0.00000000	      0.00000000	      0.00000000	      0.00000000	      0.00000000	      0.00000000	      0.00000000	      0.00000000	      0.00000000
     15.01400000	   -155.75075913	   1229.32302073	    -24.76469666	      2.38619669	      0.00000000	      1.07353383	      0.00000000	      4.99950303	     -0.00000000	      0.00000000	      0.00000000	      0.00000000	      0.00000000	      0.00000000	      0.00000000	      0.00000000	      0.00000000	      0.00000000
     15.01500000	   -157.71617037	   1244.00390102	    -26.47850035	      2.38489851	      0.00000000	      1.07361714	      0.00000000	      5.01511249	     -0.00000000	      0.00000000	      0.00000000	      0.00000000	      0.00000000	      0.00000000	      0.00000000	      0.00000000	      0.00000000	      0.00000000
     15.01600000	   -159.68158161	   1258.68478131	    -28.19230405	      2.38360032	      0.00000000	      1.07370044	      0.00000000	      5.03072195	     -0.00000000	      0.00000000	      0.00000000	      0.00000000	      0.00000000	      0.00000000	      0.00000000	      0.00000000	      0.00000000	      0.00000000
     15.01700000	   -161.47518602	   1272.76578302	    -29.92924044	      2.38225858	      0.00000000	      1.07378926	      0.00000000	      5.04633677	     -0.00000000	      0.00000000	      0.00000000	      0.00000000	      0.00000000	      0.00000000	      0.00000000	      0.00000000	      0.00000000	      0.00000000
     15.01800000	   -162.92517676	   1285.64702759	    -31.71244221	      2.38082972	      0.00000000	      1.07388909	      0.00000000	      5.06196229	     -0.00000000	      0.00000000	      0.00000000	      0.00000000	      0.00000000	      0.00000000	      0.00000000	      0.00000000	      0.00000000	      0.00000000
     15.01900000	   -164.37516751	   1298.52827215	    -33.49564399	      2.37940086	      0.00000000	      1.07398891	      0.00000000	      5.07758782	     -0.00000000	      0.00000000	      0.00000000	      0.00000000	      0.00000000	      0.00000000	      0.00000000	      0.00000000	      0.00000000	      0.00000000
     15.02000000	   -165.82515826	   1311.40951671	    -35.27884577	      2.37797200	      0.00000000	      1.07408874	      0.00000000	      5.09321335	     -0.00000000	      0.00000000	      0.00000000	      0.00000000	      0.00000000	      0.00000000	      0.00000000	      0.00000000	      0.00000000	      0.00000000
     15.02100000	   -166.70100626	   1322.60261259	    -37.09906594	      2.37640656	      0.00000000	      1.07420129	      0.00000000	      5.10751140	     -0.00000000	      0.00000000	      0.00000000	      0.00000000	      0.00000000	      0.00000000	      0.00000000	      0.00000000	      0.00000000	      0.00000000
     15.02200000	   -167.57685426	   1333.79570846	    -38.91928610	      2.37484112	      0.00000000	      1.07431383	      0.00000000	      5.12180945	      0.00000000	      0.00000000	      0.00000000	      0.00000000	      0.00000000	      0.00000000	      0.00000000	      0.00000000	      0.00000000	      0.00000000
     15.02300000	   -168.45270226	   1344.98880434	    -40.73950627	      2.37327568	      0.00000000	      1.07442637	      0.00000000	      5.13610751	      0.00000000	      0.00000000	      0.00000000	      0.00000000	      0.00000000	      0.00000000	      0.00000000	      0.00000000	      0.00000000	      0.00000000
     15.02400000	   -168.91399018	   1355.13512505	    -42.56010963	      2.37161665	      0.00000000	      1.07454453	      0.00000000	      5.14870679	      0.00000000	      0.00000000	      0.00000000	      0.00000000	      0.00000000	      0.00000000	      0.00000000	      0.00000000	      0.00000000	      0.00000000
     15.02500000	   -169.16799808	   1364.75805817	    -44.38090459	      2.36991082	      0.00000000	      1.07466549	      0.00000000	      5.16045669	      0.00000000	      0.00000000	      0.00000000	      0.00000000	      0.00000000	      0.00000000	      0.00000000	      0.00000000	      0.00000000	      0.00000000
     15.02600000	   -169.42200597	   1374.38099129	    -46.20169954	      2.36820500	      0.00000000	      1.07478645	      0.00000000	      5.17220659	      0.00000000	      0.00000000	      0.00000000	      0.00000000	      0.00000000	      0.00000000	      0.00000000	      0.00000000	      0.00000000	      0.00000000
     15.02700000	   -169.45723057	   1383.51963654	    -48.00964173	      2.36645185	      0.00000000	      1.07490867	      0.00000000	      5.18274221	      0.00000000	      0.00000000	      0.00000000	      0.00000000	      0.00000000	      0.00000000	      0.00000000	      0.00000000	      0.00000000	      0.00000000
     15.02800000	   -169.05488857	   1391.68970603	    -49.79187837	      2.36460403	      0.00000000	      1.07503339	      0.00000000	      5.19084927	      0.00000000	      0.00000000	      0.00000000	      0.00000000	      0.00000000	      0.00000000	      0.00000000	      0.00000000	      0.00000000	      0.00000000
     15.02900000	   -168.65254657	   1399.85977551	    -51.57411501	      2.36275621	      0.00000000	      1.07515812	      0.00000000	      5.19895634	      0.00000000	      0.00000000	      0.00000000	      0.00000000	      0.00000000	      0.00000000	      0.00000000	      0.00000000	      0.00000000	      0.00000000
     15.03000000	   -168.25020457	   1408.02984500	    -53.35635165	      2.36090839	      0.00000000	      1.07528284	      0.00000000	      5.20706340	      0.00000000	      0.00000000	      0.00000000	      0.00000000	      0.00000000	      0.00000000	      0.00000000	      0.00000000	      0.00000000	      0.00000000
     15.03100000	   -167.17167469	   1414.85754087	    -55.05972434	      2.35891916	      0.00000000	      1.07540646	      0.00000000	      5.21054649	      0.00000000	      0.00000000	      0.00000000	      0.00000000	      0.00000000	      0.00000000	      0.00000000	      0.00000000	      0.00000000	      0.00000000
     15.03200000	   -166.09314481	   1421.68523674	    -56.76309703	      2.35692992	      0.00000000	      1.07553008	      0.00000000	      5.21402958	      0.00000000	      0.00000000	      0.00000000	      0.00000000	      0.00000000	      0.00000000	      0.00000000	      0.00000000	      0.00000000	      0.00000000
